<?xml version="1.0" encoding="UTF-8"?><svg id="Layer_1" xmlns="http://www.w3.org/2000/svg" viewBox="0 0 1899.46 318.88"><defs><style>.cls-1,.cls-2{stroke-width:0px;}.cls-2{fill:#5272f2;}</style></defs><path class="cls-1" d="m127.11,200.25l-8.92-104.81H4.46L0,22.3h300.15l-4.46,73.14h-113.28l-8.92,104.81,22.74,111.5-45.94-.89-45.94.89,22.74-111.5Z"/><path class="cls-1" d="m801.44,287.66c-37.02,17.84-86.52,31.22-141.82,31.22-129.34,0-185.53-68.68-185.53-152.97,0-97.67,71.8-151.19,191.77-151.19,44.15,0,90.54,8.03,134.69,27.65l-19.18,73.59c-37.02-19.18-79.38-29.43-128-29.43-84.29,0-129.78,30.77-129.78,79.83s43.71,78.49,123.09,78.49c58.87,0,105.7-15.61,138.7-32.11l16.05,74.93Z"/><path class="cls-1" d="m859.86,200.69L837.12,0l45.94,1.34,45.94-1.34-22.75,200.69,22.75,111.05-45.94-1.34-45.94,1.34,22.74-111.05Z"/><path class="cls-1" d="m1237.62,200.69l22.74,111.05-45.94-1.34-27.21,1.34,1.34-52.63c-30.33,35.68-62.88,58.87-108.38,58.87-49.95,0-99.9-27.65-85.63-82.06l9.37-35.23-21.41-111.05,44.15,1.34,44.15-1.34-21.85,111.05c-4.91,24.97,16.95,43.71,55.3,43.71,29.43,0,57.09-10.7,84.74-30.33l-20.52-124.43,45.94,1.34,45.94-1.34-22.74,111.05Z"/><path class="cls-1" d="m1392.37,128.89c27.21-27.21,61.54-45.49,99.01-45.49,68.68,0,120.42,58.87,120.42,117.74,0,61.99-51.29,117.74-117.29,117.74-42.37,0-86.08-20.52-108.82-53.96l2.23,46.83-28.1-1.34-45.94,1.34,22.75-111.05L1313.88.45l45.94.89,45.94-1.34-13.38,128.89Zm-8.92,88.3c33,23.64,72.7,26.76,93.21,26.76,47.27,0,86.52-17.84,86.52-42.81s-39.25-44.15-90.54-44.15c-26.31,0-57.09,4.46-86.08,25.87l-3.12,30.77v3.57Z"/><path class="cls-1" d="m1899.01,294.8c-38.8,16.95-77.15,24.08-115.06,24.08-83.85,0-145.39-37.91-145.39-114.62,0-69.57,51.73-120.86,136.92-120.86,66.01,0,123.98,29.88,123.98,105.7,0,9.81-.89,20.96-2.68,33l-210.51.89c0,27.21,45.49,34.79,86.52,34.79,38.36,0,75.37-6.69,106.59-22.3l19.62,59.32Zm-45.94-104.81c0-28.1-32.11-46.83-81.17-46.83s-84.29,18.73-84.29,46.83h165.46Z"/><path class="cls-2" d="m430.6,204.42v66.13c-53.32,14.27-106.59,28.53-160.52,42.96-.34-2.39-.76-4.03-.76-5.66-.05-18.55.05-37.09-.09-55.64-.03-3.66,1.03-5.48,4.8-6.48,51.03-13.52,102.01-27.2,153.02-40.82,1.03-.28,2.13-.31,3.57-.5Z"/></svg>